<svg version="1.1" xmlns="http://www.w3.org/2000/svg" viewBox="0 20 580 50" width="580" height="80">
  <!-- svg-source:excalidraw -->
  <defs>
    <style type="text/css">
      @import url('https://fonts.googleapis.com/css?family=Heebo');

      .name {
        font-family: Heebo;
      }

      :root {
        --space-1: #050A26;
        --space-2: #081040;
        --space-3: #101F73;
        --space-4: #1228A6;
        --space-5: #D94A4A;
        --space-6: white;
      }

      .stroke {
        stroke: var(--space-1, orange);
      }

      .fill {
        fill: var(--space-6, red);
      }

      .text_fill {
        fill: var(--space-1, orange);
      }

      .background_fill {
        fill: none;
      }

      .moon_fill {
        /* fill: #f3ff16; */
      }

      .telescope_fill {
        fill: var(--space-5);
      }

      .name_fill {
        fill: var(--space-1);
      }

      .name_stroke {
        stroke: var(--space-1);
      }

      #name_below {
        display: block;
      }

      #name_right {
        display: block;
      }
    </style>

    <g id="name">
      <g transform="translate(0.09477402231215 36.90626039068968)">
        <text x="115.19501388763399" y="0" font-size="24.6px" font-size-old="23.458093267832712px"
          class="name fill text_fill" text-anchor="middle" style="white-space: pre;" direction="ltr"
          dominant-baseline="text-before-edge">Minden-Lübbecke e.V.</text>
      </g>
      <g transform="translate(0.33783427177826 0.49084224736049)">
        <text x="114.87434560968369" y="0" font-size="33px" font-size-old="29.436091770968297px"
          class="name fill text_fill" text-anchor="middle" style="white-space: pre;" direction="ltr"
          dominant-baseline="text-before-edge">Schulsternwarte</text>
      </g>
    </g>
  </defs>

  <!-- Background -->
  <rect x="0" y="-100" width="593.812915772755" height="255.22887697548055" class="fill background_fill"></rect>
  <!-- Moon -->
  <g stroke-linecap="round">
    <g transform="translate(180.26345841766573 63.907899103648646) rotate(0 -27.77109715352205 -22.772293734411193)"
      fill-rule="evenodd">
      <path
        d="M-0.31 1.34 L4.91 -15.04 L4.88 -21.02 L4.67 -28.12 L-5.99 -40.32 L-15.64 -49.6 L-28.25 -50.38 L-40.99 -45.17 L-54.62 -35.11 L-59.61 -24.53 L-63.93 -16.18 L-60.74 -10.15 L-58.99 -4.07 L-36.03 0.15 L-14.69 2.63 L-9.01 4.35 L-0.41 0.41"
        stroke="none" stroke-width="0" fill-rule="evenodd" class="fill moon_fill"></path>
      <path
        d="M-0.41 1.06 C0.13 -1.06, 3.57 -7.49, 4.08 -12.57 C4.6 -17.64, 5.98 -23.54, 2.68 -29.38 C-0.63 -35.21, -8.02 -44.84, -15.75 -47.58 C-23.48 -50.31, -36.61 -49.47, -43.73 -45.8 C-50.84 -42.12, -56.27 -32.22, -58.44 -25.53 C-60.62 -18.84, -64.04 -10.74, -56.79 -5.64 C-49.53 -0.54, -24.3 4.17, -14.92 5.07 C-5.54 5.96, -2.86 0.61, -0.51 -0.28 M1.57 0.57 C2.41 -1.93, 6.28 -9.68, 6.28 -14.43 C6.28 -19.18, 5.27 -22.06, 1.58 -27.93 C-2.11 -33.79, -8.59 -46.63, -15.86 -49.63 C-23.12 -52.62, -34.61 -49.79, -42 -45.89 C-49.38 -42, -57.84 -33.26, -60.16 -26.25 C-62.49 -19.24, -63.38 -9.08, -55.96 -3.82 C-48.53 1.44, -25.16 4.98, -15.63 5.32 C-6.1 5.65, -1.32 -0.79, 1.21 -1.81"
        stroke-width="1" fill="none" class="stroke moon_stroke"></path>
    </g>
  </g>
  <mask></mask>
  <!-- Telescope -->
  <g stroke-linecap="round" display="">
    <!-- Stand-->
    <g stroke-linecap="round">
      <g stroke-linecap="round">
        <g transform="translate(144.02705072051737 74.42759580616229) rotate(0 13.422802852778489 -11.879790500266196)">
          <path
            d="M0.76 0.15 C3.32 -3.57, 11.14 -21.99, 15.54 -22.29 C19.94 -22.58, 25.43 -5.1, 27.14 -1.63 M-0.29 -0.81 C2.13 -4.86, 10.32 -23.91, 14.84 -23.91 C19.36 -23.91, 25 -4.67, 26.83 -0.82"
            stroke-width="1" fill="none" class="stroke telescope_stroke telescope_stand_stroke"></path>
        </g>
      </g>
      <g stroke-linecap="round">
        <g transform="translate(157.45596781011233 74.5993032988278) rotate(0 0.8828615625675127 -12.149996685399117)">
          <path d="M0.46 0.95 C0.76 -3.29, 2.4 -20.91, 2.52 -25.25 M-0.75 0.4 C-0.61 -3.73, 1.87 -20.11, 2.03 -24.21"
            stroke-width="1" fill="none" class="stroke telescope_stroke telescope_stand_stroke"></path>
        </g>
      </g>
      <g stroke-linecap="round"
        transform="translate(156.9942292506476 42.60405247935418) rotate(0 2.660611053433229 3.9909165801497153)">
        <path
          d="M2.58 -0.69 C3.27 -0.91, 3.91 -0.33, 4.44 0.35 C4.97 1.03, 5.55 2.62, 5.76 3.39 C5.97 4.15, 5.99 4.29, 5.72 4.96 C5.45 5.63, 4.63 7.04, 4.15 7.41 C3.66 7.77, 3.43 7.25, 2.8 7.15 C2.17 7.06, 0.94 7.53, 0.37 6.83 C-0.2 6.12, -0.75 3.87, -0.6 2.95 C-0.45 2.02, 0.51 1.78, 1.27 1.28 C2.04 0.79, 3.5 0.19, 4 -0.02 C4.5 -0.22, 4.3 -0.1, 4.26 0.06 M3.71 0.74 C4.24 0.84, 5.95 1.12, 6.29 1.78 C6.63 2.44, 6.13 3.56, 5.76 4.7 C5.38 5.84, 4.4 8.14, 4.03 8.62 C3.66 9.09, 4.12 7.68, 3.53 7.55 C2.93 7.43, 1.22 8.55, 0.46 7.87 C-0.3 7.19, -1.17 4.53, -1.01 3.45 C-0.86 2.37, 0.99 2.06, 1.39 1.4 C1.79 0.74, 0.83 -0.21, 1.41 -0.52 C1.99 -0.84, 4.41 -0.78, 4.88 -0.5 C5.35 -0.22, 4.3 1.11, 4.24 1.16"
          stroke="none" stroke-width="0" class="fill telescope_fill telescope_stand_fill"></path>
        <path
          d="M1.38 0.28 C2.07 0.22, 3.52 0.2, 4.28 0.69 C5.04 1.18, 5.65 2.45, 5.93 3.24 C6.21 4.02, 6.3 4.76, 5.95 5.4 C5.6 6.05, 4.44 6.84, 3.83 7.12 C3.21 7.39, 2.86 7.11, 2.26 7.04 C1.65 6.98, 0.6 7.17, 0.18 6.73 C-0.24 6.29, -0.43 5.13, -0.26 4.41 C-0.09 3.69, 0.77 3.1, 1.19 2.4 C1.62 1.69, 1.93 0.69, 2.3 0.18 C2.68 -0.33, 3.59 -0.7, 3.45 -0.67 M3.26 0.14 C3.66 -0.09, 3.85 -0.56, 4.04 -0.19 C4.23 0.18, 4.44 1.13, 4.4 2.35 C4.36 3.57, 3.98 6.37, 3.8 7.11 C3.63 7.86, 3.61 6.66, 3.33 6.83 C3.06 7, 2.76 8.12, 2.17 8.16 C1.58 8.2, -0.03 7.95, -0.18 7.06 C-0.34 6.17, 1.03 4.06, 1.25 2.82 C1.47 1.57, 1.13 0.25, 1.12 -0.4 C1.12 -1.06, 1 -1.21, 1.22 -1.11 C1.43 -1.02, 2.36 -0.12, 2.42 0.16"
          stroke-width="1" fill="none" class="stroke telescope_stroke telescope_stand_stroke"></path>
      </g>
    </g>
    <mask></mask>
    <!-- Tube-->
    <g stroke-linecap="round">
      <g stroke-linecap="round">
        <g transform="translate(135.15834720907384 47.64977777916587) rotate(0 25.490582811310418 -16.110316548371955)"
          fill-rule="evenodd">
          <path
            d="M-1.78 -0.94 L49.02 -14.71 L54.18 -16.41 L56.84 -21.05 L52.64 -29.19 L48.14 -33.87 L39.97 -29.48 L2.75 -9.71 L-3.7 -3.79 L-0.32 -1.35"
            stroke="none" stroke-width="0" fill-rule="evenodd" class="fill telescope_fill telescope_tube_fill"></path>
          <path
            d="M-0.46 -0.8 C7.39 -3.16, 38.89 -10.88, 47.99 -15.11 C57.1 -19.35, 54.75 -23.73, 54.18 -26.22 C53.61 -28.72, 53.76 -33.44, 44.57 -30.1 C35.38 -26.75, 6.44 -11.14, -0.96 -6.17 C-8.37 -1.19, 0.03 -1.27, 0.13 -0.24 M1.5 1.4 C9.66 -0.76, 41.62 -9.1, 50.29 -14.06 C58.97 -19.02, 54.43 -25.34, 53.54 -28.36 C52.65 -31.37, 54.2 -36, 44.94 -32.16 C35.68 -28.31, 5.21 -10.41, -2.01 -5.29 C-9.23 -0.16, 1.26 -2.07, 1.61 -1.41"
            stroke-width="1" fill="none" class="stroke telescope_stroke telescope_tube_stroke"></path>
        </g>
      </g>
      <g stroke-linecap="round">
        <g transform="translate(182.82377439782488 15.162178401725583) rotate(0 2.947219178659367 8.163165874668053)">
          <path
            d="M-0.79 -0.92 C-0.8 0.61, -1.93 5.39, -0.55 8.42 C0.82 11.44, 6.02 15.78, 7.45 17.25 M1 1.2 C0.89 2.44, -2.34 4.13, -1.37 6.5 C-0.41 8.87, 5.12 13.96, 6.8 15.4"
            stroke-width="1" fill="none" class="stroke telescope_stroke telescope_tube_stroke"></path>
        </g>
      </g>
    </g>
    <mask></mask>
  </g>
  <!-- Wiehen -->
  <g stroke-linecap="round">
    <g stroke-linecap="round">
      <g transform="translate(165.02201768278962 68.28740808748745) rotate(0 53.672938308775514 -4.979091163232837)">
        <path
          d="M0.25 0.4 C10.62 -1.58, 43.45 -13.44, 61.48 -12.76 C79.51 -12.09, 100.72 1.77, 108.43 4.45 M-1.08 -0.44 C9.23 -2.66, 42.45 -14.9, 60.65 -14.39 C78.84 -13.89, 100.19 -0.51, 108.09 2.59"
          stroke-width="1" fill="none" class="stroke wiehen_stroke"></path>
      </g>
    </g>
    <!-- Wilhelm -->
    <g stroke-linecap="round" display="">
      <g stroke-linecap="round">
        <g transform="translate(207.42304515374303 57.857052810603534) rotate(0 8.935538141367374 -0.4673110579233679)">
          <path d="M1.15 -0.38 C4.13 -0.4, 15.07 -0.56, 17.57 -0.55 M0.3 -1.63 C3.2 -1.45, 13.89 0.3, 16.94 0.69"
            stroke-width="1" fill="none" class="stroke wiehen_stroke wiehen_wilhelm_stroke"></path>
        </g>
      </g>
      <mask></mask>
      <g stroke-linecap="round">
        <g transform="translate(210.12084322442956 57.857052810603534) rotate(0 1.6474019385846645 -4.504988855446456)">
          <path d="M0.61 -0.55 C0.67 -2.29, 1.42 -9.14, 1.52 -10.78 M-0.53 1.77 C-0.18 0.24, 3.14 -7.63, 3.82 -9.44"
            stroke-width="1" fill="none" class="stroke wiehen_stroke wiehen_wilhelm_stroke"></path>
        </g>
      </g>
      <mask></mask>
      <g stroke-linecap="round">
        <g
          transform="translate(215.9018390901872 57.471653086219646) rotate(0 -0.21480269670610141 -5.3818535038193005)">
          <path d="M-0.79 -0.37 C-1.13 -2.01, -1.42 -8.61, -1.45 -10.39 M1 -1.61 C0.96 -3, 1.21 -7.43, 0.7 -8.85"
            stroke-width="1" fill="none" class="stroke wiehen_stroke wiehen_wilhelm_stroke"></path>
        </g>
      </g>
      <mask></mask>
      <g stroke-linecap="round">
        <g
          transform="translate(221.29743523156162 57.471653086219646) rotate(0 -1.3723131175627827 -5.328164237902712)">
          <path d="M-1.07 0.02 C-1.49 -1.7, -2.94 -8.95, -3.32 -10.67 M0.57 -1.02 C0.62 -2.56, -0.1 -8.11, -0.93 -9.48"
            stroke-width="1" fill="none" class="stroke wiehen_stroke wiehen_wilhelm_stroke"></path>
        </g>
      </g>
      <mask></mask>
      <g stroke-linecap="round"
        transform="translate(210.48000415489855 45.883422560789086) rotate(0 5.010196416990141 1.3488990353434929)">
        <path d="M-1.11 0.03 L8.31 -1.09 L8.97 1.49 L2.14 4.68 L2.43 -0.94" stroke="none" stroke-width="0"
          class="fill wiehen_fill wiehen_wilhelm_fill">
        </path>
        <path
          d="M0.67 0 M0.67 0 C4.3 -0.29, 6.51 0.5, 9.35 0 M0.67 0 C2.88 0.07, 4.87 -0.23, 9.35 0 M9.35 0 C8.25 -0.71, 11.6 0.83, 10.02 0.67 M9.35 0 C9.46 -0.45, 10.5 -1.38, 10.02 0.67 M10.02 0.67 C10.09 1.04, 9.91 1.26, 10.02 2.02 M10.02 0.67 C10.04 0.93, 10.06 1.25, 10.02 2.02 M10.02 2.02 C10.29 1.35, 8.96 4.52, 9.35 2.7 M10.02 2.02 C11.71 1.22, 10.66 1.02, 9.35 2.7 M9.35 2.7 C7.16 2.7, 5.66 2.62, 0.67 2.7 M9.35 2.7 C6.8 2.59, 4.64 2.72, 0.67 2.7 M0.67 2.7 C0.79 4.32, 0.66 2.27, 0 2.02 M0.67 2.7 C-1.61 4.35, -1.2 4.09, 0 2.02 M0 2.02 C-0.13 1.45, 0.08 1.13, 0 0.67 M0 2.02 C-0.04 1.73, 0 1.42, 0 0.67 M0 0.67 C-0.43 -1.24, -0.03 -0.33, 0.67 0 M0 0.67 C-0.56 -1.41, 1.65 1.11, 0.67 0"
          stroke-width="1" fill="none" class="stroke wiehen_stroke wiehen_wilhelm_stroke"></path>
      </g>
      <g stroke-linecap="round">
        <g transform="translate(213.20404101950066 45.524261630320154) rotate(0 1.2817245411566205 -2.240492661483671)">
          <path d="M-0.63 -0.32 C0.01 -0.66, 2.53 -1.98, 3.19 -2.66 M1.24 -1.54 C1.85 -2.12, 2.39 -3.85, 2.71 -4.16"
            stroke-width="1" fill="none" class="stroke wiehen_stroke wiehen_wilhelm_stroke"></path>
        </g>
      </g>
      <mask></mask>
      <g stroke-linecap="round">
        <g
          transform="translate(217.82883771210686 45.524261630320154) rotate(0 -0.38815656910838925 -1.9985744086784507)">
          <path d="M0.88 1.19 C0.78 0.38, -0.89 -4.11, -1.26 -5.19 M-0.12 0.77 C-0.23 0.14, -1.4 -3.1, -1.66 -3.95"
            stroke-width="1" fill="none" class="stroke wiehen_stroke wiehen_wilhelm_stroke"></path>
        </g>
      </g>
      <mask></mask>
    </g>
  </g>
  <mask></mask>
  <!-- Weser -->
  <g stroke-linecap="round" display="">
    <g transform="translate(39.54323897288208 72.02919921858586) rotate(0 70.80193668296553 -8.606724406899929)">
      <path
        d="M0.23 0.94 C7.88 -1.88, 22.39 -16.26, 46.14 -16.52 C69.88 -16.79, 126.7 -3.33, 142.71 -0.65 M-1.11 0.39 C6.43 -2.79, 21.76 -18.18, 45.61 -18.16 C69.47 -18.13, 125.91 -2.6, 142.02 0.54"
        stroke-width="1" fill="none" class="stroke weser_stroke"></path>
    </g>
    <!-- Tower -->
    <g stroke-linecap="round" display="">
      <g stroke-linecap="round">
        <g transform="translate(99.65265826659964 59.31327235439849) rotate(0 -0.9928922975073249 -9.939383731996543)">
          <path
            d="M-0.21 0.86 C-0.39 -2.52, 0.04 -17.3, -0.13 -20.74 M-1.78 0.26 C-2.18 -2.89, -1.42 -15.68, -0.92 -19.34"
            stroke-width="1" fill="none" class="stroke weser_stroke weser_tower_stroke"></path>
        </g>
      </g>
      <g stroke-linecap="round">
        <g transform="translate(94.0563644675612 51.30682509155767) rotate(0 4.85887701996532 -0.5578592553890616)">
          <path d="M0.31 -0.28 C1.75 -0.33, 6.97 0.61, 8.4 0.56 M-0.98 -1.47 C0.86 -1.93, 9.21 -1.52, 10.7 -1.19"
            stroke-width="1" fill="none" class="stroke weser_stroke weser_tower_stroke"></path>
        </g>
      </g>
      <g stroke-linecap="round">
        <g transform="translate(96.45882807727185 44.686079093346024) rotate(0 2.550606506733857 -0.03913510529271491)">
          <path d="M0 0 C0.85 -0.01, 4.25 -0.07, 5.1 -0.08 M0 0 C0.85 -0.01, 4.25 -0.07, 5.1 -0.08" stroke-width="1"
            fill="none" class="stroke weser_stroke weser_tower_stroke"></path>
        </g>
      </g>
    </g>
    <mask></mask>
  </g>
  <mask></mask>
  <!-- Ground -->
  <g stroke-linecap="round">
    <g transform="translate(10 72.68921618519929) rotate(0 150.3900775469798 -0.16293616202273142)">
      <path d="M0 0 C50.13 -0.05, 250.65 -0.27, 300.78 -0.33 M0 0 C50.13 -0.05, 250.65 -0.27, 300.78 -0.33"
        stroke-width="1" fill="none" class="stroke ground_stroke"></path>
    </g>
  </g>
  <mask></mask>
  <!-- Text -->
  <use id="name_right" href="#name" transform="translate(331,8)" />
</svg>
